<svg width="40" height="40" viewBox="0 0 40 40" fill="none" xmlns="http://www.w3.org/2000/svg">
<path d="M31.849 10.8149L36.9244 32.5017H4.11084L9.15095 10.8149H31.849Z" stroke="black" stroke-width="0.989752" stroke-miterlimit="10" stroke-linejoin="round"/>
<path d="M16.7642 3.4823H24.2362V10.815H16.7642V3.4823Z" stroke="black" stroke-width="0.989752" stroke-miterlimit="10" stroke-linejoin="round"/>
<path d="M20.5352 17.1792H17.046L13.909 20.5688V17.1792H10.7722V26.5179H13.909V24.2005L14.6492 23.4396L17.0107 26.5179H20.7467L16.7287 21.2952L20.5352 17.1792Z" stroke="black" stroke-width="0.989752" stroke-miterlimit="10" stroke-linejoin="round"/>
<path d="M27.7253 23.9584C27.6901 23.9584 27.6548 23.993 27.6197 23.993C27.2672 24.0968 26.9147 24.166 26.5622 24.166C26.2098 24.166 25.8925 24.0968 25.6458 23.993C25.3639 23.8893 25.1172 23.7163 24.941 23.5088C24.7294 23.3013 24.5885 23.0591 24.4827 22.7824C24.3771 22.5057 24.3066 22.1599 24.3066 21.814C24.3066 21.4335 24.3771 21.1222 24.4827 20.8455C24.5885 20.5688 24.7294 20.3267 24.941 20.1192C25.1524 19.9116 25.3991 19.7733 25.6811 19.6349C25.9631 19.5312 26.2803 19.462 26.6328 19.462C27.0557 19.462 27.4434 19.5658 27.7958 19.7387C28.1483 19.9116 28.4655 20.1537 28.7828 20.4996L30.827 18.7356C30.3335 18.1476 29.7343 17.698 28.9942 17.3867C28.254 17.0754 27.4081 16.9025 26.4566 16.9025C25.6811 16.9025 24.941 17.0062 24.2713 17.2484C23.6016 17.4905 23.0377 17.8364 22.5795 18.2514C22.086 18.7011 21.7337 19.2199 21.4517 19.8079C21.2049 20.3959 21.064 21.053 21.064 21.7794C21.064 22.5057 21.2049 23.1629 21.4517 23.7509C21.6984 24.3389 22.086 24.8577 22.5443 25.3074C23.0377 25.757 23.5663 26.0683 24.236 26.3104C24.9057 26.5525 25.6106 26.6563 26.3508 26.6563C27.0557 26.6563 27.7606 26.5525 28.5008 26.345C29.2409 26.1375 29.9106 25.8608 30.4745 25.4803V22.3674H27.6901V23.9584H27.7253Z" stroke="black" stroke-width="0.989752" stroke-miterlimit="10" stroke-linejoin="round"/>
<path d="M3.61743 32.5017H37.3826V36.5139H3.61743L3.61743 32.5017Z" stroke="black" stroke-width="0.989752" stroke-miterlimit="10" stroke-linejoin="round"/>
</svg>
