<svg width="40" height="40" viewBox="0 0 40 40" fill="none" xmlns="http://www.w3.org/2000/svg">
<path d="M8.76367 3.69336L8.76367 36.3725H4.49055L4.49055 3.69336L8.76367 3.69336Z" stroke="black" stroke-width="1.03304" stroke-miterlimit="10" stroke-linejoin="round"/>
<path d="M4.01514 3.69971V2.00055L9.31959 2.00055V3.69971L4.01514 3.69971Z" stroke="black" stroke-width="1.03304" stroke-miterlimit="10" stroke-linejoin="round"/>
<path d="M4 38.0542V36.355H9.30436V38.0542H4Z" stroke="black" stroke-width="1.03304" stroke-miterlimit="10" stroke-linejoin="round"/>
<path d="M36.4268 3.69397L36.4268 36.3733H32.1536L32.1536 3.69397L36.4268 3.69397Z" stroke="black" stroke-width="1.03304" stroke-miterlimit="10" stroke-linejoin="round"/>
<path d="M31.678 3.69922V2.00002L36.9824 2.00002V3.69922L31.678 3.69922Z" stroke="black" stroke-width="1.03304" stroke-miterlimit="10" stroke-linejoin="round"/>
<path d="M31.6631 38.0537V36.3545H36.9674V38.0537H31.6631Z" stroke="black" stroke-width="1.03304" stroke-miterlimit="10" stroke-linejoin="round"/>
<path d="M10.6333 20.1167H30.3408" stroke="black" stroke-width="1.03304" stroke-miterlimit="10" stroke-linejoin="round"/>
<path d="M13.7275 23.3175L10.6333 19.9981L13.7275 16.7184" stroke="black" stroke-width="1.03304" stroke-miterlimit="10" stroke-linejoin="round"/>
<path d="M27.2466 16.7184L30.3408 19.9981L27.2466 23.3175" stroke="black" stroke-width="1.03304" stroke-miterlimit="10" stroke-linejoin="round"/>
</svg>
