<svg width="40" height="40" viewBox="0 0 40 40" fill="none" xmlns="http://www.w3.org/2000/svg">
<path d="M19.5002 5.39719C25.5767 5.39719 31.1917 7.40577 35.7299 10.8049L37.4221 8.52594C32.4224 4.77916 26.2305 2.53882 19.5002 2.53882C12.7699 2.53882 6.57803 4.77916 1.57837 8.48732L3.27056 10.7663C7.80872 7.40577 13.4237 5.39719 19.5002 5.39719Z" stroke="black" stroke-width="1.09252" stroke-miterlimit="10" stroke-linejoin="round"/>
<path d="M19.5003 13.5474C23.7692 13.5474 27.6921 14.9381 30.8842 17.3329L32.4225 15.247C28.8074 12.5432 24.3461 10.9595 19.5003 10.9595C14.6545 10.9595 10.1933 12.5432 6.57812 15.247L8.11648 17.3329C11.3085 14.9381 15.2314 13.5474 19.5003 13.5474Z" stroke="black" stroke-width="1.09252" stroke-miterlimit="10" stroke-linejoin="round"/>
<path d="M19.5003 21.0024C22.1155 21.0024 24.5 21.8522 26.4614 23.32L27.9613 21.3114C25.6153 19.5346 22.6924 18.4917 19.5003 18.4917C16.3082 18.4917 13.4238 19.5346 11.0393 21.3114L12.5392 23.32C14.5006 21.8522 16.8851 21.0024 19.5003 21.0024Z" stroke="black" stroke-width="1.09252" stroke-miterlimit="10" stroke-linejoin="round"/>
<path d="M22.3078 28.8821C21.5386 28.3027 20.5387 27.9551 19.5003 27.9551C18.4619 27.9551 17.462 28.3027 16.6928 28.8821C15.539 29.7319 14.7698 31.1225 14.7698 32.6675C14.7698 35.2941 16.8851 37.4187 19.5003 37.4187C22.1155 37.4187 24.2308 35.2941 24.2308 32.6675C24.2308 31.1225 23.4616 29.7706 22.3078 28.8821Z" stroke="black" stroke-width="1.09252" stroke-miterlimit="10" stroke-linejoin="round"/>
</svg>
