<svg width="40" height="40" viewBox="0 0 40 40" fill="none" xmlns="http://www.w3.org/2000/svg">
<path d="M18.8199 23.8151V6.81517C18.8199 4.97733 17.3186 3.49292 15.4598 3.49292C13.6009 3.49292 12.0996 4.97733 12.0996 6.81517V23.8151C9.91907 25.0522 8.48923 27.3848 8.59647 30.0709C8.7752 33.4991 11.6349 36.3266 15.1023 36.5033C19.0344 36.68 22.2873 33.5698 22.2873 29.7528C22.2873 27.1727 20.8932 24.9815 18.8199 23.8151Z" stroke="black" stroke-width="1.00759" stroke-miterlimit="10" stroke-linejoin="round"/>
<path d="M19.642 29.7174C19.642 32.0012 17.7695 33.8526 15.4597 33.8526C13.1498 33.8526 11.2773 32.0012 11.2773 29.7174C11.2773 27.4337 13.1498 25.5823 15.4597 25.5823C17.7695 25.5823 19.642 27.4337 19.642 29.7174Z" stroke="black" stroke-width="1.00759" stroke-miterlimit="10" stroke-linejoin="round"/>
<path d="M21.7153 5.18945H31.9031" stroke="black" stroke-width="1.00759" stroke-miterlimit="10" stroke-linejoin="round"/>
<path d="M21.7153 13.0002H31.9031" stroke="black" stroke-width="1.00759" stroke-miterlimit="10" stroke-linejoin="round"/>
<path d="M21.7153 20.1395H31.9031" stroke="black" stroke-width="1.00759" stroke-miterlimit="10" stroke-linejoin="round"/>
<path d="M21.7153 16.7112H26.6483" stroke="black" stroke-width="1.00759" stroke-miterlimit="10" stroke-linejoin="round"/>
<path d="M21.7153 9.81934H26.6483" stroke="black" stroke-width="1.00759" stroke-miterlimit="10" stroke-linejoin="round"/>
<path d="M21.7153 23.179H26.6483" stroke="black" stroke-width="1.00759" stroke-miterlimit="10" stroke-linejoin="round"/>
<path d="M15.4597 25.5824V7.59277" stroke="black" stroke-width="1.00759" stroke-miterlimit="10" stroke-linejoin="round"/>
</svg>
