<svg width="165" height="12" viewBox="0 0 165 12" fill="none" xmlns="http://www.w3.org/2000/svg">
<path d="M0.169844 8.99805V0.430046H6.94984V8.99805H5.13784V1.94205H1.98184V8.99805H0.169844ZM16.8873 4.70205C16.8873 5.36605 16.8033 5.97005 16.6353 6.51405C16.4753 7.05005 16.2273 7.51405 15.8913 7.90605C15.5633 8.29805 15.1393 8.59805 14.6193 8.80605C14.1073 9.01405 13.5033 9.11805 12.8073 9.11805C12.1113 9.11805 11.5033 9.01405 10.9833 8.80605C10.4713 8.59005 10.0473 8.29005 9.71125 7.90605C9.38325 7.51405 9.13525 7.04605 8.96725 6.50205C8.80725 5.95805 8.72725 5.35405 8.72725 4.69005C8.72725 3.80205 8.87125 3.03005 9.15925 2.37405C9.45525 1.71805 9.90325 1.21005 10.5033 0.850047C11.1113 0.482047 11.8833 0.298047 12.8193 0.298047C13.7473 0.298047 14.5113 0.482047 15.1113 0.850047C15.7113 1.21005 16.1553 1.72205 16.4433 2.38605C16.7393 3.04205 16.8873 3.81405 16.8873 4.70205ZM10.6353 4.70205C10.6353 5.30205 10.7113 5.81805 10.8633 6.25005C11.0153 6.68205 11.2513 7.01405 11.5713 7.24605C11.8913 7.47805 12.3033 7.59405 12.8073 7.59405C13.3273 7.59405 13.7433 7.47805 14.0553 7.24605C14.3753 7.01405 14.6073 6.68205 14.7513 6.25005C14.9033 5.81805 14.9793 5.30205 14.9793 4.70205C14.9793 3.79805 14.8113 3.09005 14.4753 2.57805C14.1393 2.06605 13.5873 1.81005 12.8193 1.81005C12.3073 1.81005 11.8913 1.92605 11.5713 2.15805C11.2513 2.39005 11.0153 2.72205 10.8633 3.15405C10.7113 3.58605 10.6353 4.10205 10.6353 4.70205ZM25.2077 8.99805H23.3957V1.94205H21.2957C21.2477 2.31005 21.1957 2.71005 21.1397 3.14205C21.0917 3.57405 21.0357 4.01405 20.9717 4.46205C20.9157 4.90205 20.8557 5.32205 20.7917 5.72205C20.7277 6.11405 20.6637 6.46205 20.5997 6.76605C20.4957 7.26205 20.3557 7.68605 20.1797 8.03805C20.0117 8.39005 19.7757 8.65805 19.4717 8.84205C19.1757 9.02605 18.7877 9.11805 18.3077 9.11805C18.1477 9.11805 17.9957 9.10605 17.8517 9.08205C17.7077 9.05805 17.5717 9.02605 17.4437 8.98605V7.49805C17.5477 7.53005 17.6477 7.55805 17.7437 7.58205C17.8477 7.60605 17.9597 7.61805 18.0797 7.61805C18.2397 7.61805 18.3717 7.56605 18.4757 7.46205C18.5797 7.35805 18.6717 7.18205 18.7517 6.93405C18.8317 6.67805 18.9117 6.32605 18.9917 5.87805C19.0317 5.68605 19.0797 5.41405 19.1357 5.06205C19.1917 4.70205 19.2557 4.28205 19.3277 3.80205C19.4077 3.31405 19.4877 2.78605 19.5677 2.21805C19.6477 1.64205 19.7237 1.04605 19.7957 0.430046H25.2077V8.99805ZM31.5931 6.49005C31.3531 7.03405 31.0971 7.50605 30.8251 7.90605C30.5611 8.29805 30.2211 8.59805 29.8051 8.80605C29.3891 9.01405 28.8451 9.11805 28.1731 9.11805C27.9651 9.11805 27.7371 9.10205 27.4891 9.07005C27.2411 9.03805 27.0131 8.99405 26.8051 8.93805V7.37805C26.9971 7.45805 27.2091 7.51405 27.4411 7.54605C27.6731 7.57805 27.8891 7.59405 28.0891 7.59405C28.3531 7.59405 28.5651 7.55005 28.7251 7.46205C28.8931 7.37405 29.0251 7.25405 29.1211 7.10205C29.2251 6.94205 29.3091 6.77005 29.3731 6.58605L26.4091 0.430046H28.3291L29.9251 4.13805C29.9651 4.21805 30.0131 4.32205 30.0691 4.45005C30.1251 4.57805 30.1811 4.71005 30.2371 4.84605C30.2931 4.98205 30.3371 5.10205 30.3691 5.20605H30.4291C30.4611 5.11005 30.5011 4.99405 30.5491 4.85805C30.6051 4.71405 30.6611 4.57005 30.7171 4.42605C30.7811 4.27405 30.8371 4.14205 30.8851 4.03005L32.3731 0.430046H34.2451L31.5931 6.49005ZM41.9021 8.99805H40.0901V5.68605C39.5861 5.86205 39.1221 5.99405 38.6981 6.08205C38.2821 6.17005 37.8621 6.21405 37.4381 6.21405C36.6381 6.21405 36.0101 6.02205 35.5541 5.63805C35.1061 5.24605 34.8821 4.69005 34.8821 3.97005V0.430046H36.6941V3.45405C36.6941 3.87005 36.7901 4.18205 36.9821 4.39005C37.1741 4.59805 37.4981 4.70205 37.9541 4.70205C38.2901 4.70205 38.6261 4.66605 38.9621 4.59405C39.2981 4.52205 39.6741 4.41405 40.0901 4.27005V0.430046H41.9021V8.99805ZM44.0566 0.430046H45.6886V4.57005C45.6886 4.77005 45.6846 4.99405 45.6766 5.24205C45.6686 5.49005 45.6606 5.73405 45.6526 5.97405C45.6446 6.20605 45.6366 6.41005 45.6286 6.58605C45.6206 6.75405 45.6126 6.87005 45.6046 6.93405H45.6406L49.6006 0.430046H51.7726V8.99805H50.1526V4.88205C50.1526 4.66605 50.1566 4.43005 50.1646 4.17405C50.1726 3.91005 50.1806 3.65805 50.1886 3.41805C50.2046 3.17805 50.2166 2.97005 50.2246 2.79405C50.2406 2.61005 50.2526 2.49005 50.2606 2.43405H50.2126L46.2406 8.99805H44.0566V0.430046ZM57.2355 8.99805H55.4235V1.94205H53.0955V0.430046H59.5635V1.94205H57.2355V8.99805ZM60.8847 8.99805V0.430046H62.6967V3.71805H63.4167C64.2247 3.71805 64.8847 3.83005 65.3967 4.05405C65.9167 4.27805 66.3007 4.58605 66.5487 4.97805C66.7967 5.37005 66.9207 5.81805 66.9207 6.32205C66.9207 6.88205 66.7967 7.36205 66.5487 7.76205C66.3007 8.16205 65.9167 8.47005 65.3967 8.68605C64.8767 8.89405 64.2047 8.99805 63.3807 8.99805H60.8847ZM63.3087 7.51005C63.8607 7.51005 64.2927 7.42205 64.6047 7.24605C64.9247 7.07005 65.0847 6.76205 65.0847 6.32205C65.0847 6.01805 65.0047 5.78605 64.8447 5.62605C64.6927 5.46605 64.4727 5.35805 64.1847 5.30205C63.9047 5.23805 63.5647 5.20605 63.1647 5.20605H62.6967V7.51005H63.3087ZM71.5722 8.99805V0.430046H78.3522V8.99805H76.5402V1.94205H73.3842V8.99805H71.5722ZM83.2496 0.430046C84.3536 0.430046 85.1576 0.670046 85.6616 1.15005C86.1736 1.62205 86.4296 2.27405 86.4296 3.10605C86.4296 3.48205 86.3736 3.84205 86.2616 4.18605C86.1496 4.52205 85.9616 4.82605 85.6976 5.09805C85.4416 5.36205 85.1016 5.57005 84.6776 5.72205C84.2536 5.87405 83.7296 5.95005 83.1056 5.95005H82.3256V8.99805H80.5136V0.430046H83.2496ZM83.1536 1.91805H82.3256V4.46205H82.9256C83.2696 4.46205 83.5656 4.41805 83.8136 4.33005C84.0616 4.24205 84.2536 4.10205 84.3896 3.91005C84.5256 3.71805 84.5936 3.47005 84.5936 3.16605C84.5936 2.74205 84.4776 2.43005 84.2456 2.23005C84.0136 2.02205 83.6496 1.91805 83.1536 1.91805ZM92.9808 8.99805H88.0488V0.430046H92.9808V1.91805H89.8608V3.80205H92.7648V5.29005H89.8608V7.49805H92.9808V8.99805ZM101.472 0.430046V7.48605H102.612V11.494H100.86V8.99805H95.4956V11.494H93.7436V7.48605H94.4036C94.6276 7.03805 94.8436 6.56605 95.0516 6.07005C95.2596 5.57405 95.4516 5.04205 95.6276 4.47405C95.8116 3.90605 95.9756 3.29005 96.1196 2.62605C96.2636 1.95405 96.3836 1.22205 96.4796 0.430046H101.472ZM97.9196 1.94205C97.8636 2.35805 97.7836 2.80205 97.6796 3.27405C97.5756 3.73805 97.4516 4.21405 97.3076 4.70205C97.1716 5.19005 97.0196 5.67005 96.8516 6.14205C96.6836 6.61405 96.5036 7.06205 96.3116 7.48605H99.6596V1.94205H97.9196ZM110.708 8.99805H108.896V1.94205H106.796C106.748 2.31005 106.696 2.71005 106.64 3.14205C106.592 3.57405 106.536 4.01405 106.472 4.46205C106.416 4.90205 106.356 5.32205 106.292 5.72205C106.228 6.11405 106.164 6.46205 106.1 6.76605C105.996 7.26205 105.856 7.68605 105.68 8.03805C105.512 8.39005 105.276 8.65805 104.972 8.84205C104.676 9.02605 104.288 9.11805 103.808 9.11805C103.648 9.11805 103.496 9.10605 103.352 9.08205C103.208 9.05805 103.072 9.02605 102.944 8.98605V7.49805C103.048 7.53005 103.148 7.55805 103.244 7.58205C103.348 7.60605 103.46 7.61805 103.58 7.61805C103.74 7.61805 103.872 7.56605 103.976 7.46205C104.08 7.35805 104.172 7.18205 104.252 6.93405C104.332 6.67805 104.412 6.32605 104.492 5.87805C104.532 5.68605 104.58 5.41405 104.636 5.06205C104.692 4.70205 104.756 4.28205 104.828 3.80205C104.908 3.31405 104.988 2.78605 105.068 2.21805C105.148 1.64205 105.224 1.04605 105.296 0.430046H110.708V8.99805ZM120.645 4.70205C120.645 5.36605 120.561 5.97005 120.393 6.51405C120.233 7.05005 119.985 7.51405 119.649 7.90605C119.321 8.29805 118.897 8.59805 118.377 8.80605C117.865 9.01405 117.261 9.11805 116.565 9.11805C115.869 9.11805 115.261 9.01405 114.741 8.80605C114.229 8.59005 113.805 8.29005 113.469 7.90605C113.141 7.51405 112.893 7.04605 112.725 6.50205C112.565 5.95805 112.485 5.35405 112.485 4.69005C112.485 3.80205 112.629 3.03005 112.917 2.37405C113.213 1.71805 113.661 1.21005 114.261 0.850047C114.869 0.482047 115.641 0.298047 116.577 0.298047C117.505 0.298047 118.269 0.482047 118.869 0.850047C119.469 1.21005 119.913 1.72205 120.201 2.38605C120.497 3.04205 120.645 3.81405 120.645 4.70205ZM114.393 4.70205C114.393 5.30205 114.469 5.81805 114.621 6.25005C114.773 6.68205 115.009 7.01405 115.329 7.24605C115.649 7.47805 116.061 7.59405 116.565 7.59405C117.085 7.59405 117.501 7.47805 117.813 7.24605C118.133 7.01405 118.365 6.68205 118.509 6.25005C118.661 5.81805 118.737 5.30205 118.737 4.70205C118.737 3.79805 118.569 3.09005 118.233 2.57805C117.897 2.06605 117.345 1.81005 116.577 1.81005C116.065 1.81005 115.649 1.92605 115.329 2.15805C115.009 2.39005 114.773 2.72205 114.621 3.15405C114.469 3.58605 114.393 4.10205 114.393 4.70205ZM124.153 4.54605L121.273 0.430046H123.145L125.917 4.58205V0.430046H127.609V4.58205L130.381 0.430046H132.253L129.373 4.54605L132.421 8.99805H130.477L127.609 4.65405V8.99805H125.917V4.65405L123.049 8.99805H121.105L124.153 4.54605ZM138.438 8.99805H133.506V0.430046H138.438V1.91805H135.318V3.80205H138.222V5.29005H135.318V7.49805H138.438V8.99805ZM147.241 8.99805H145.429V5.30205H142.033V8.99805H140.221V0.430046H142.033V3.79005H145.429V0.430046H147.241V8.99805ZM149.396 0.430046H151.028V4.57005C151.028 4.77005 151.024 4.99405 151.016 5.24205C151.008 5.49005 151 5.73405 150.992 5.97405C150.984 6.20605 150.976 6.41005 150.968 6.58605C150.96 6.75405 150.952 6.87005 150.944 6.93405H150.98L154.94 0.430046H157.112V8.99805H155.492V4.88205C155.492 4.66605 155.496 4.43005 155.504 4.17405C155.512 3.91005 155.52 3.65805 155.528 3.41805C155.544 3.17805 155.556 2.97005 155.564 2.79405C155.58 2.61005 155.592 2.49005 155.6 2.43405H155.552L151.58 8.99805H149.396V0.430046ZM164.207 8.99805H159.275V0.430046H164.207V1.91805H161.087V3.80205H163.991V5.29005H161.087V7.49805H164.207V8.99805Z" fill="white"/>
</svg>
