<svg width="149" height="32" viewBox="0 0 149 32" fill="none" xmlns="http://www.w3.org/2000/svg">
<path d="M2.80493 31.2889V0H17.0344C26.01 0 30.8261 3.71966 30.8261 10.7214C30.8261 15.3163 28.8559 18.3795 24.9154 20.1299L32.1396 31.2889H24.2586L18.129 21.4427C17.4723 21.4427 16.8155 21.4427 16.1587 21.4427H9.59131V31.2889H2.80493ZM9.81022 16.629H16.8155C21.8505 16.629 24.4775 14.6598 24.4775 10.7214C24.4775 6.7829 22.0695 4.81367 16.8155 4.81367H9.81022V16.629Z" fill="white"/>
<path d="M54.4691 0C62.1311 0 66.0716 2.84444 66.0716 7.87691C66.0716 11.159 64.5391 13.5658 61.2554 14.8786C65.4148 15.9726 67.6039 18.5983 67.6039 22.5367C67.6039 28.0068 63.4446 31.2889 56.2203 31.2889H38.926V0H54.4691ZM45.4935 4.81367V13.1282H54.0312C57.7528 13.1282 59.5041 11.8154 59.5041 8.97095C59.5041 6.1265 57.7528 4.81367 54.0312 4.81367H45.4935ZM55.3447 26.2564C58.8473 26.2564 60.8176 24.7248 60.8176 21.6615C60.8176 18.5983 58.8473 17.0667 55.3447 17.0667H45.4935V26.2564H55.3447Z" fill="white"/>
<path d="M73.2957 31.2889V0H81.8334L98.6897 23.8496V0H105.476V31.2889H97.1572L80.3009 7.22048V31.2889H73.2957Z" fill="white"/>
<path d="M124.084 0H133.06L146.194 31.2889H138.971L136.781 25.6H120.581L118.393 31.2889H111.168L124.084 0ZM134.811 20.7863L128.462 5.25129L122.333 20.7863H134.811Z" fill="white"/>
</svg>
